:SAMPLES-PER-SECOND 30
:FULLY-SPECIFIED
:DEGREES
248
root  -4.631177647 39.25755418 5.25733317 48.39498901 -76.45899963 -42.11801147
lowerback  12.06210041 3.249540091 -4.12804985
upperback  4.549099922 3.380520105 -5.014450073
thorax  -1.917610049 1.563240051 -3.366790056
lowerneck  5.483500004 8.918149948 -5.070710182
upperneck  8.087380409 10.89920044 12.53240013
head  0.5720999837 5.292089939 4.819920063
lclavicle  0 -9.442270133e-015 7.951389973e-016
lhumerus  -21.76390076 0.3305650055 70.12010193
lradius  2.011818373e-031 -2.901970171e-031 124.7320023
lwrist  -7.062250077e-031 3.531125038e-031 53.03279877
lhand  -1.496451383e-031 -27.76390076 20.11240005
lfingers  90 7.125020027 -90
lthumb  89.89689403 5.08795885 91.16245106
rclavicle  0 -9.442270133e-015 7.951389973e-016
rhumerus  -22.73870087 1.188719988 -78.11979675
rradius  -3.239258514e-032 3.516236067e-031 95.26339722
rwrist  7.062250077e-031 7.062250077e-031 -51.39279938
rhand  -7.920061211e-032 -33.2840004 9.303460121
rfingers  -90 -7.125020027 -90
rthumb  -92.93752616 -24.25625642 -97.11982154
rfemur  -10.10630035 9.179659843 17.88290024
rtibia  -0 0 43.96689987
rfoot  -9.309779641e-032 -18.51689911 -5.242380142
rtoes  5.373923086 19.29304026 -105.8922705
lfemur  -39.26070023 -0.3557220101 7.541450024
ltibia  -0 0 60.27809906
lfoot  4.414457434e-032 -0.9053840041 -0.8764209747
ltoes  -4.250644065 -19.5611806 -102.515957
249
root  -4.57648893 39.4546659 5.191644533 48.08999634 -76.71700287 -41.48199463
lowerback  12.1885004 3.203010082 -4.096509933
upperback  4.643760204 3.301919937 -5.188819885
thorax  -1.876489997 1.520849943 -3.561539888
lowerneck  5.407090187 8.838760376 -5.116330147
upperneck  8.105930328 10.75549984 13.14869976
head  0.4716590047 5.2354002 4.551750183
lclavicle  0 -9.442270133e-015 7.951389973e-016
lhumerus  -18.6909008 0.01468260027 69.0759964
lradius  2.045112257e-031 -2.87860381e-031 125.3919983
lwrist  -7.062250077e-031 5.296687558e-031 52.84659958
lhand  -1.496451383e-031 -27.76390076 20.11240005
lfingers  90 7.125020027 -90
lthumb  89.89689403 5.08795885 91.16245106
rclavicle  0 -9.442270133e-015 7.951389973e-016
rhumerus  -22.47649956 0.7886540294 -78.13700104
rradius  -3.629794741e-032 3.512419385e-031 95.90010071
rwrist  7.062250077e-031 7.062250077e-031 -51.34790039
rhand  -7.920061211e-032 -33.2840004 9.303460121
rfingers  -90 -7.125020027 -90
rthumb  -92.93752616 -24.25625642 -97.11982154
rfemur  -10.92310047 8.644390106 17.22929955
rtibia  -0 0 44.09700012
rfoot  -4.61130334e-032 -16.82509995 -3.955009937
rtoes  5.373923086 19.29304026 -105.8922705
lfemur  -40.18610001 0.1252470016 7.459070206
ltibia  -0 0 60.12760162
lfoot  6.625130421e-032 2.057440042 -2.225260019
ltoes  -4.250644065 -19.5611806 -102.515957
250
root  -4.527044296 39.65088852 5.133044626 48.33099365 -76.82800293 -41.48498535
lowerback  12.35949993 3.116250038 -3.983599901
upperback  4.771279812 3.187210083 -5.209290028
thorax  -1.831769943 1.461689949 -3.636059999
lowerneck  5.259349823 8.822890282 -5.688940048
upperneck  7.94851017 10.72299957 13.62790012
head  0.3870559931 5.211050034 4.784399986
lclavicle  0 -9.442270133e-015 7.951389973e-016
lhumerus  -15.91460037 0.09584440291 68.20999908
lradius  2.083462713e-031 -2.850969512e-031 126.1589966
lwrist  -7.062250077e-031 5.296687558e-031 52.58860016
lhand  -1.496451383e-031 -27.76390076 20.11240005
lfingers  90 7.125020027 -90
lthumb  89.89689403 5.08795885 91.16245106
rclavicle  0 -9.442270133e-015 7.951389973e-016
rhumerus  -22.18379974 0.7733740211 -78.07099915
rradius  -3.968259325e-032 3.508756648e-031 96.45249939
rwrist  7.062250077e-031 3.531125038e-031 -51.3370018
rhand  -7.920061211e-032 -33.2840004 9.303460121
rfingers  -90 -7.125020027 -90
rthumb  -92.93752616 -24.25625642 -97.11982154
rfemur  -11.69779968 8.206089973 16.79520035
rtibia  -0 0 44.30070114
rfoot  -4.569253259e-032 -14.98320007 -2.352230072
rtoes  5.373923086 19.29304026 -105.8922705
lfemur  -41.02719879 0.571582973 7.597400188
ltibia  -0 0 60.01520157
lfoot  4.431024992e-032 5.038030148 -3.258140087
ltoes  -4.250644065 -19.5611806 -102.515957
251
root  -4.474688703 39.83622273 5.089288997 48.50100708 -77.01499939 -41.48199463
lowerback  12.7123003 3.027460098 -3.920830011
upperback  4.828100204 3.045370102 -5.237100124
thorax  -1.963009953 1.389310002 -3.698909998
lowerneck  5.137770176 8.810460091 -6.332520008
upperneck  7.833779812 10.69019985 14.08839989
head  0.3082619905 5.184939861 5.023859978
lclavicle  0 -9.442270133e-015 7.951389973e-016
lhumerus  -13.53180027 0.3805930018 67.41860199
lradius  2.126904909e-031 -2.818708844e-031 127.0370026
lwrist  -7.062250077e-031 5.296687558e-031 52.45650101
lhand  -1.496451383e-031 -27.76390076 20.11240005
lfingers  90 7.125020027 -90
lthumb  89.89689403 5.08795885 91.16245106
rclavicle  0 -9.442270133e-015 7.951389973e-016
rhumerus  -21.98460007 1.034229994 -78.04149628
rradius  -4.266529789e-032 3.505254809e-031 96.93979645
rwrist  7.062250077e-031 5.296687558e-031 -51.31010056
rhand  -7.920061211e-032 -33.2840004 9.303460121
rfingers  -90 -7.125020027 -90
rthumb  -92.93752616 -24.25625642 -97.11982154
rfemur  -12.48659992 7.912220001 16.23810005
rtibia  -0 0 44.59960175
rfoot  -5.092902617e-032 -12.83530045 -0.7238810062
rtoes  5.373923086 19.29304026 -105.8922705
lfemur  -41.76409912 0.9545099735 7.619790077
ltibia  -0 0 59.93629837
lfoot  8.907294161e-032 7.659870148 -3.873330116
ltoes  -4.250644065 -19.5611806 -102.515957
252
root  -4.43804433 40.01822284 5.05128883 48.43099976 -77.21700287 -41.4750061
lowerback  13.26119995 2.998500109 -3.882289886
upperback  4.937129974 2.962899923 -5.250339985
thorax  -2.145100117 1.343850017 -3.749840021
lowerneck  4.945569992 8.774120331 -6.60777998
upperneck  7.909160137 10.62989998 14.2020998
head  0.3440189958 5.158329964 5.114059925
lclavicle  0 -9.442270133e-015 7.951389973e-016
lhumerus  -11.42420006 0.5426080227 66.72879791
lradius  2.175386092e-031 -2.781463533e-031 128.029007
lwrist  -7.062250077e-031 3.531125038e-031 52.46780014
lhand  -1.496451383e-031 -27.76390076 20.11240005
lfingers  90 7.125020027 -90
lthumb  89.89689403 5.08795885 91.16245106
rclavicle  0 -9.442270133e-015 7.951389973e-016
rhumerus  -21.86370087 1.342020035 -77.99729919
rradius  -4.544451346e-032 3.50176008e-031 97.39430237
rwrist  7.062250077e-031 7.062250077e-031 -51.3368988
rhand  -7.920061211e-032 -33.2840004 9.303460121
rfingers  -90 -7.125020027 -90
rthumb  -92.93752616 -24.25625642 -97.11982154
rfemur  -13.10779953 7.804979801 15.65880013
rtibia  -0 0 45.04499817
rfoot  -5.050406988e-032 -10.51200008 0.4942510128
rtoes  5.373923086 19.29304026 -105.8922705
lfemur  -42.22280121 1.065240026 7.591899872
ltibia  -0 0 59.8647995
lfoot  4.471644421e-032 9.217300415 -4.390739918
ltoes  -4.250644065 -19.5611806 -102.515957
253
root  -4.424644455 40.19488838 5.006822075 48.2210083 -77.48300171 -41.38800049
lowerback  13.73840046 2.988539934 -4.030489922
upperback  5.103620052 2.891289949 -5.196209908
thorax  -2.239739895 1.300510049 -3.619649887
lowerneck  4.495709896 8.764780045 -6.87872982
upperneck  8.23348999 10.60280037 14.07549953
head  0.5076929927 5.161419868 5.149879932
lclavicle  0 -9.442270133e-015 7.951389973e-016
lhumerus  -9.653280258 0.7615879774 66.22059631
lradius  2.229720092e-031 -2.738100135e-031 129.1569977
lwrist  -7.062250077e-031 5.296687558e-031 52.69229889
lhand  -1.496451383e-031 -27.76390076 20.11240005
lfingers  90 7.125020027 -90
lthumb  89.89689403 5.08795885 91.16245106
rclavicle  0 -9.442270133e-015 7.951389973e-016
rhumerus  -21.71619987 1.970849991 -77.82550049
rradius  -4.857060908e-032 3.497561097e-031 97.90609741
rwrist  7.062250077e-031 5.296687558e-031 -51.3586998
rhand  -7.920061211e-032 -33.2840004 9.303460121
rfingers  -90 -7.125020027 -90
rthumb  -92.93752616 -24.25625642 -97.11982154
rfemur  -13.7741003 7.846220016 15.04819965
rtibia  -0 0 45.74119949
rfoot  -5.574739379e-032 -8.226019859 1.076259971
rtoes  5.373923086 19.29304026 -105.8922705
lfemur  -42.5461998 1.021569967 7.50564003
ltibia  -0 0 59.78110123
lfoot  4.476589121e-032 9.599450111 -4.834859848
ltoes  -4.250644065 -19.5611806 -102.515957
254
root  -4.410488774 40.33066757 4.98486654 48.9630127 -77.72399902 -42.04699707
lowerback  14.01189995 2.972919941 -3.944849968
upperback  5.154540062 2.860219955 -5.154009819
thorax  -2.332319975 1.283589959 -3.631459951
lowerneck  3.888180017 8.750880241 -7.242229939
upperneck  8.771069527 10.55169964 14.08030033
head  0.7474799752 5.158599854 5.254479885
lclavicle  0 -9.442270133e-015 7.951389973e-016
lhumerus  -8.194049835 0.9485419989 65.74759674
lradius  2.282955327e-031 -2.69387435e-031 130.2799988
lwrist  -7.062250077e-031 1.765562519e-031 53.32350159
lhand  -1.496451383e-031 -27.76390076 20.11240005
lfingers  90 7.125020027 -90
lthumb  89.89689403 5.08795885 91.16245106
rclavicle  0 -9.442270133e-015 7.951389973e-016
rhumerus  -21.66830063 2.703720093 -77.62809753
rradius  -5.127156814e-032 3.493703861e-031 98.34880066
rwrist  1.412450015e-030 5.296687558e-031 -51.31930161
rhand  -7.920061211e-032 -33.2840004 9.303460121
rfingers  -90 -7.125020027 -90
rthumb  -92.93752616 -24.25625642 -97.11982154
rfemur  -14.79170036 7.977700233 14.56519985
rtibia  -0 0 46.7560997
rfoot  -4.440918192e-032 -6.322649956 0.8970909715
rtoes  5.373923086 19.29304026 -105.8922705
lfemur  -43.02980042 1.123010039 7.544000149
ltibia  -0 0 59.68619919
lfoot  4.471366767e-032 9.195349693 -4.962550163
ltoes  -4.250644065 -19.5611806 -102.515957
